<svg xmlns="http://www.w3.org/2000/svg" viewBox="0 0 640 220">
  <defs>
    <linearGradient id="bg" x1="0%" y1="0%" x2="100%" y2="100%">
      <stop offset="0%" style="stop-color:#0d1117"/>
      <stop offset="100%" style="stop-color:#161b22"/>
    </linearGradient>
  </defs>
  <rect width="640" height="220" rx="12" fill="url(#bg)"/>
  <!-- Terminal chrome -->
  <rect x="20" y="16" width="600" height="188" rx="8" fill="#0d1117" stroke="#30363d" stroke-width="1"/>
  <circle cx="40" cy="32" r="5" fill="#ff5f57"/>
  <circle cx="56" cy="32" r="5" fill="#febc2e"/>
  <circle cx="72" cy="32" r="5" fill="#28c840"/>
  <text x="300" y="35" font-family="monospace" font-size="11" fill="#484f58" text-anchor="middle">hlz</text>
  
  <!-- Zig mark -->
  <g transform="translate(40,55) scale(0.65)" fill="#f7a41d" opacity="0.9">
    <polygon points="46,22 28,44 19,30"/>
    <polygon points="46,22 33,33 28,44 22,44 22,95 31,95 20,100 12,117 0,117 0,22" shape-rendering="crispEdges"/>
    <polygon points="31,95 12,117 4,106"/>
    <polygon points="56,22 62,36 37,44"/>
    <polygon points="56,22 111,22 111,44 37,44 56,32" shape-rendering="crispEdges"/>
    <polygon points="116,95 97,117 90,104"/>
    <polygon points="116,95 100,104 97,117 42,117 42,95" shape-rendering="crispEdges"/>
    <polygon points="150,0 52,117 3,140 101,22"/>
    <polygon points="141,22 140,40 122,45"/>
    <polygon points="153,22 153,117 106,117 120,105 125,95 131,95 131,45 122,45 132,36 141,22" shape-rendering="crispEdges"/>
    <polygon points="125,95 130,110 106,117"/>
  </g>
  
  <!-- Prompt -->
  <text font-family="'SF Mono','Fira Code','JetBrains Mono',monospace" fill="#e6edf3" font-weight="bold">
    <tspan x="160" y="82" font-size="15" fill="#484f58">$</tspan>
    <tspan x="178" y="82" font-size="15" fill="#f7a41d">hlz</tspan>
  </text>
  
  <!-- Big name -->
  <text x="160" y="125" font-family="'SF Mono','Fira Code',monospace" font-size="48" font-weight="bold" fill="#e6edf3">hlz</text>
  
  <!-- Tagline -->
  <text x="160" y="152" font-family="'SF Mono',monospace" font-size="13" fill="#8b949e">zig tooling for hyperliquid</text>
  
  <!-- Stats line -->
  <text x="160" y="180" font-family="'SF Mono',monospace" font-size="11">
    <tspan fill="#8b949e">38 commands</tspan>
    <tspan fill="#484f58"> · </tspan>
    <tspan fill="#8b949e">30 endpoints</tspan>
    <tspan fill="#484f58"> · </tspan>
    <tspan fill="#8b949e">~15k lines</tspan>
    <tspan fill="#484f58"> · </tspan>
    <tspan fill="#f7a41d">zig 0.15</tspan>
  </text>
</svg>
